<?xml version="1.0" encoding="UTF-8" standalone="no"?>
<!-- Created with Inkscape (http://www.inkscape.org/) -->

<svg
   width="887"
   height="1024"
   viewBox="0 0 234.68542 270.93333"
   version="1.1"
   id="svg1"
   sodipodi:docname="base.svg"
   inkscape:version="1.4 (1:1.4+202410161351+e7c3feb100)"
   xmlns:inkscape="http://www.inkscape.org/namespaces/inkscape"
   xmlns:sodipodi="http://sodipodi.sourceforge.net/DTD/sodipodi-0.dtd"
   xmlns="http://www.w3.org/2000/svg"
   xmlns:svg="http://www.w3.org/2000/svg">
  <sodipodi:namedview
     id="namedview1"
     pagecolor="#ffffff"
     bordercolor="#000000"
     borderopacity="0.25"
     inkscape:showpageshadow="2"
     inkscape:pageopacity="0.0"
     inkscape:pagecheckerboard="0"
     inkscape:deskcolor="#d1d1d1"
     inkscape:document-units="mm"
     showgrid="true"
     inkscape:zoom="0.81079054"
     inkscape:cx="487.17885"
     inkscape:cy="493.96235"
     inkscape:window-width="3374"
     inkscape:window-height="1371"
     inkscape:window-x="66"
     inkscape:window-y="32"
     inkscape:window-maximized="1"
     inkscape:current-layer="svg1">
    <sodipodi:guide
       position="0,270.93333"
       orientation="0,887"
       id="guide1393"
       inkscape:locked="false" />
    <sodipodi:guide
       position="234.68542,270.93333"
       orientation="1024,0"
       id="guide1394"
       inkscape:locked="false" />
    <sodipodi:guide
       position="234.68542,0"
       orientation="0,-887"
       id="guide1395"
       inkscape:locked="false" />
    <sodipodi:guide
       position="0,0"
       orientation="-1024,0"
       id="guide1396"
       inkscape:locked="false" />
    <inkscape:grid
       id="grid1396"
       units="px"
       originx="0"
       originy="0"
       spacingx="7.333919"
       spacingy="4.2333336"
       empcolor="#e5006e"
       empopacity="0.30196078"
       color="#0099e5"
       opacity="0.14901961"
       empspacing="4"
       enabled="true"
       visible="true" />
  </sodipodi:namedview>
  <defs
     id="defs1" />
  <path
     id="rect227"
     style="fill:#217821;stroke-width:0.264583"
     d="M 117.34271 0 L 0 67.733333 L 0 90.311283 L 0 135.46667 L 0 180.62205 L 0 203.2 L 117.34271 270.93333 L 234.68542 203.2 L 234.68542 67.733333 L 117.34271 0 z " />
  <path
     id="path747"
     style="fill:#447821;stroke-width:0.264583"
     d="M 117.34271 0 L 0 67.733333 L 0 90.311283 L 0 101.6 L 0 135.46667 L 0 169.33333 L 0 180.62205 L 0 203.2 L 117.34271 270.93333 L 234.68542 203.2 L 234.68542 67.733333 L 117.34271 0 z " />
  <path
     id="rect140"
     style="fill:#808080;stroke-width:0.264583"
     d="M 117.34271 0 L 117.34271 12.7 L 139.34447 12.7 L 117.34271 0 z M 110.00879 4.2333333 L 95.340951 12.7 L 110.00879 12.7 L 110.00879 4.2333333 z M 88.007031 16.933333 L 66.005273 29.633333 L 88.007031 29.633333 L 88.007031 16.933333 z M 95.340951 16.933333 L 95.340951 29.633333 L 117.34271 29.633333 L 146.67839 29.633333 L 146.67839 16.933333 L 117.34271 16.933333 L 95.340951 16.933333 z M 154.0123 21.166667 L 154.0123 29.633333 L 168.68014 29.633333 L 154.0123 21.166667 z M 58.671354 33.866667 L 58.671354 46.566667 L 110.00879 46.566667 L 110.00879 33.866667 L 58.671354 33.866667 z M 117.34271 33.866667 L 117.34271 46.566667 L 168.68014 46.566667 L 168.68014 33.866667 L 117.34271 33.866667 z M 176.01406 33.866667 L 176.01406 46.566667 L 198.01582 46.566667 L 176.01406 33.866667 z M 51.337435 38.1 L 36.669596 46.566667 L 51.337435 46.566667 L 51.337435 38.1 z M 29.335677 50.8 L 7.3339193 63.5 L 29.335677 63.5 L 29.335677 50.8 z M 36.669596 50.8 L 36.669596 63.5 L 58.671354 63.5 L 88.007031 63.5 L 88.007031 50.8 L 58.671354 50.8 L 36.669596 50.8 z M 95.340951 50.8 L 95.340951 63.5 L 117.34271 63.5 L 146.67839 63.5 L 146.67839 50.8 L 117.34271 50.8 L 95.340951 50.8 z M 154.0123 50.8 L 154.0123 63.5 L 176.01406 63.5 L 205.34974 63.5 L 205.34974 50.8 L 176.01406 50.8 L 154.0123 50.8 z M 212.68366 55.033333 L 212.68366 63.5 L 227.3515 63.5 L 212.68366 55.033333 z M 0 67.733333 L 0 80.433333 L 51.337435 80.433333 L 51.337435 67.733333 L 0 67.733333 z M 58.671354 67.733333 L 58.671354 80.433333 L 110.00879 80.433333 L 110.00879 67.733333 L 58.671354 67.733333 z M 117.34271 67.733333 L 117.34271 80.433333 L 168.68014 80.433333 L 168.68014 67.733333 L 117.34271 67.733333 z M 176.01406 67.733333 L 176.01406 80.433333 L 227.3515 80.433333 L 227.3515 67.733333 L 176.01406 67.733333 z M 0 84.666667 L 0 90.311283 L 0 97.366667 L 29.335677 97.366667 L 29.335677 84.666667 L 0 84.666667 z M 36.669596 84.666667 L 36.669596 97.366667 L 58.671354 97.366667 L 88.007031 97.366667 L 88.007031 84.666667 L 58.671354 84.666667 L 36.669596 84.666667 z M 95.340951 84.666667 L 95.340951 97.366667 L 117.34271 97.366667 L 146.67839 97.366667 L 146.67839 84.666667 L 117.34271 84.666667 L 95.340951 84.666667 z M 154.0123 84.666667 L 154.0123 97.366667 L 176.01406 97.366667 L 205.34974 97.366667 L 205.34974 84.666667 L 176.01406 84.666667 L 154.0123 84.666667 z M 212.68366 84.666667 L 212.68366 97.366667 L 234.68542 97.366667 L 234.68542 84.666667 L 212.68366 84.666667 z M 0 101.6 L 0 114.3 L 51.337435 114.3 L 51.337435 101.6 L 0 101.6 z M 58.671354 101.6 L 58.671354 114.3 L 110.00879 114.3 L 110.00879 101.6 L 58.671354 101.6 z M 117.34271 101.6 L 117.34271 114.3 L 168.68014 114.3 L 168.68014 101.6 L 117.34271 101.6 z M 176.01406 101.6 L 176.01406 114.3 L 227.3515 114.3 L 227.3515 101.6 L 176.01406 101.6 z M 0 118.53333 L 0 131.23333 L 29.335677 131.23333 L 29.335677 118.53333 L 0 118.53333 z M 36.669596 118.53333 L 36.669596 131.23333 L 58.671354 131.23333 L 88.007031 131.23333 L 88.007031 118.53333 L 58.671354 118.53333 L 36.669596 118.53333 z M 95.340951 118.53333 L 95.340951 131.23333 L 117.34271 131.23333 L 146.67839 131.23333 L 146.67839 118.53333 L 117.34271 118.53333 L 95.340951 118.53333 z M 154.0123 118.53333 L 154.0123 131.23333 L 176.01406 131.23333 L 205.34974 131.23333 L 205.34974 118.53333 L 176.01406 118.53333 L 154.0123 118.53333 z M 212.68366 118.53333 L 212.68366 131.23333 L 234.68542 131.23333 L 234.68542 118.53333 L 212.68366 118.53333 z M 0 135.46667 L 0 148.16667 L 51.337435 148.16667 L 51.337435 135.46667 L 0 135.46667 z M 58.671354 135.46667 L 58.671354 148.16667 L 110.00879 148.16667 L 110.00879 135.46667 L 58.671354 135.46667 z M 117.34271 135.46667 L 117.34271 148.16667 L 168.68014 148.16667 L 168.68014 135.46667 L 117.34271 135.46667 z M 176.01406 135.46667 L 176.01406 148.16667 L 227.3515 148.16667 L 227.3515 135.46667 L 176.01406 135.46667 z M 0 152.4 L 0 165.1 L 29.335677 165.1 L 29.335677 152.4 L 0 152.4 z M 36.669596 152.4 L 36.669596 165.1 L 58.671354 165.1 L 88.007031 165.1 L 88.007031 152.4 L 58.671354 152.4 L 36.669596 152.4 z M 95.340951 152.4 L 95.340951 165.1 L 117.34271 165.1 L 146.67839 165.1 L 146.67839 152.4 L 117.34271 152.4 L 95.340951 152.4 z M 154.0123 152.4 L 154.0123 165.1 L 176.01406 165.1 L 205.34974 165.1 L 205.34974 152.4 L 176.01406 152.4 L 154.0123 152.4 z M 212.68366 152.4 L 212.68366 165.1 L 234.68542 165.1 L 234.68542 152.4 L 212.68366 152.4 z M 0 169.33333 L 0 180.62205 L 0 182.03333 L 51.337435 182.03333 L 51.337435 169.33333 L 0 169.33333 z M 58.671354 169.33333 L 58.671354 182.03333 L 110.00879 182.03333 L 110.00879 169.33333 L 58.671354 169.33333 z M 117.34271 169.33333 L 117.34271 182.03333 L 168.68014 182.03333 L 168.68014 169.33333 L 117.34271 169.33333 z M 176.01406 169.33333 L 176.01406 182.03333 L 227.3515 182.03333 L 227.3515 169.33333 L 176.01406 169.33333 z M 0 186.26667 L 0 198.96667 L 29.335677 198.96667 L 29.335677 186.26667 L 0 186.26667 z M 36.669596 186.26667 L 36.669596 198.96667 L 58.671354 198.96667 L 88.007031 198.96667 L 88.007031 186.26667 L 58.671354 186.26667 L 36.669596 186.26667 z M 95.340951 186.26667 L 95.340951 198.96667 L 117.34271 198.96667 L 146.67839 198.96667 L 146.67839 186.26667 L 117.34271 186.26667 L 95.340951 186.26667 z M 154.0123 186.26667 L 154.0123 198.96667 L 176.01406 198.96667 L 205.34974 198.96667 L 205.34974 186.26667 L 176.01406 186.26667 L 154.0123 186.26667 z M 212.68366 186.26667 L 212.68366 198.96667 L 234.68542 198.96667 L 234.68542 186.26667 L 212.68366 186.26667 z M 0 203.2 L 22.001758 215.9 L 51.337435 215.9 L 51.337435 203.2 L 0 203.2 z M 58.671354 203.2 L 58.671354 215.9 L 110.00879 215.9 L 110.00879 203.2 L 58.671354 203.2 z M 117.34271 203.2 L 117.34271 215.9 L 168.68014 215.9 L 168.68014 203.2 L 117.34271 203.2 z M 176.01406 203.2 L 176.01406 215.9 L 212.68366 215.9 L 227.3515 207.43333 L 227.3515 203.2 L 176.01406 203.2 z M 36.669596 220.13333 L 36.669596 224.36667 L 51.337435 232.83333 L 58.671354 232.83333 L 88.007031 232.83333 L 88.007031 220.13333 L 58.671354 220.13333 L 36.669596 220.13333 z M 95.340951 220.13333 L 95.340951 232.83333 L 117.34271 232.83333 L 146.67839 232.83333 L 146.67839 220.13333 L 117.34271 220.13333 L 95.340951 220.13333 z M 154.0123 220.13333 L 154.0123 232.83333 L 176.01406 232.83333 L 183.34798 232.83333 L 205.34974 220.13333 L 176.01406 220.13333 L 154.0123 220.13333 z M 58.671354 237.06667 L 80.673112 249.76667 L 110.00879 249.76667 L 110.00879 237.06667 L 58.671354 237.06667 z M 117.34271 237.06667 L 117.34271 249.76667 L 154.0123 249.76667 L 168.68014 241.3 L 168.68014 237.06667 L 117.34271 237.06667 z M 95.340951 254 L 95.340951 258.23333 L 110.00879 266.7 L 117.34271 266.7 L 124.67663 266.7 L 146.67839 254 L 117.34271 254 L 95.340951 254 z " />
  <path
     id="path146"
     style="fill:#666666;stroke-width:0.264583"
     d="M 117.34271 4.2333333 L 117.34271 12.7 L 139.34447 12.7 L 132.01055 8.4666667 L 124.67663 8.4666667 L 124.67663 4.2333333 L 117.34271 4.2333333 z M 102.67487 8.4666667 L 95.340951 12.7 L 102.67487 12.7 L 102.67487 8.4666667 z M 95.340951 21.166667 L 95.340951 29.633333 L 117.34271 29.633333 L 139.34447 29.633333 L 139.34447 25.4 L 117.34271 25.4 L 102.67487 25.4 L 102.67487 21.166667 L 95.340951 21.166667 z M 154.0123 21.166667 L 154.0123 29.633333 L 168.68014 29.633333 L 161.34622 25.4 L 154.0123 21.166667 z M 73.339193 25.4 L 66.005273 29.633333 L 80.673112 29.633333 L 80.673112 25.4 L 73.339193 25.4 z M 58.671354 38.1 L 58.671354 46.566667 L 102.67487 46.566667 L 102.67487 42.333333 L 66.005273 42.333333 L 66.005273 38.1 L 58.671354 38.1 z M 117.34271 38.1 L 117.34271 46.566667 L 161.34622 46.566667 L 161.34622 42.333333 L 124.67663 42.333333 L 124.67663 38.1 L 117.34271 38.1 z M 176.01406 38.1 L 176.01406 46.566667 L 198.01582 46.566667 L 190.6819 42.333333 L 183.34798 42.333333 L 183.34798 38.1 L 176.01406 38.1 z M 44.003516 42.333333 L 36.669596 46.566667 L 44.003516 46.566667 L 44.003516 42.333333 z M 36.669596 55.033333 L 36.669596 63.5 L 58.671354 63.5 L 80.673112 63.5 L 80.673112 59.266667 L 58.671354 59.266667 L 44.003516 59.266667 L 44.003516 55.033333 L 36.669596 55.033333 z M 95.340951 55.033333 L 95.340951 63.5 L 117.34271 63.5 L 139.34447 63.5 L 139.34447 59.266667 L 117.34271 59.266667 L 102.67487 59.266667 L 102.67487 55.033333 L 95.340951 55.033333 z M 154.0123 55.033333 L 154.0123 63.5 L 176.01406 63.5 L 198.01582 63.5 L 198.01582 59.266667 L 176.01406 59.266667 L 161.34622 59.266667 L 161.34622 55.033333 L 154.0123 55.033333 z M 212.68366 55.033333 L 212.68366 63.5 L 227.3515 63.5 L 220.01758 59.266667 L 212.68366 55.033333 z M 14.667839 59.266667 L 7.3339193 63.5 L 22.001758 63.5 L 22.001758 59.266667 L 14.667839 59.266667 z M 0 71.966667 L 0 80.433333 L 44.003516 80.433333 L 44.003516 76.2 L 7.3339193 76.2 L 7.3339193 71.966667 L 0 71.966667 z M 58.671354 71.966667 L 58.671354 80.433333 L 102.67487 80.433333 L 102.67487 76.2 L 66.005273 76.2 L 66.005273 71.966667 L 58.671354 71.966667 z M 117.34271 71.966667 L 117.34271 80.433333 L 161.34622 80.433333 L 161.34622 76.2 L 124.67663 76.2 L 124.67663 71.966667 L 117.34271 71.966667 z M 176.01406 71.966667 L 176.01406 80.433333 L 220.01758 80.433333 L 220.01758 76.2 L 183.34798 76.2 L 183.34798 71.966667 L 176.01406 71.966667 z M 36.669596 88.9 L 36.669596 97.366667 L 58.671354 97.366667 L 80.673112 97.366667 L 80.673112 93.133333 L 58.671354 93.133333 L 44.003516 93.133333 L 44.003516 88.9 L 36.669596 88.9 z M 95.340951 88.9 L 95.340951 97.366667 L 117.34271 97.366667 L 139.34447 97.366667 L 139.34447 93.133333 L 117.34271 93.133333 L 102.67487 93.133333 L 102.67487 88.9 L 95.340951 88.9 z M 154.0123 88.9 L 154.0123 97.366667 L 176.01406 97.366667 L 198.01582 97.366667 L 198.01582 93.133333 L 176.01406 93.133333 L 161.34622 93.133333 L 161.34622 88.9 L 154.0123 88.9 z M 212.68366 88.9 L 212.68366 97.366667 L 234.68542 97.366667 L 234.68542 93.133333 L 220.01758 93.133333 L 220.01758 88.9 L 212.68366 88.9 z M 0 93.133333 L 0 97.366667 L 22.001758 97.366667 L 22.001758 93.133333 L 0 93.133333 z M 0 105.83333 L 0 114.3 L 44.003516 114.3 L 44.003516 110.06667 L 7.3339193 110.06667 L 7.3339193 105.83333 L 0 105.83333 z M 58.671354 105.83333 L 58.671354 114.3 L 102.67487 114.3 L 102.67487 110.06667 L 66.005273 110.06667 L 66.005273 105.83333 L 58.671354 105.83333 z M 117.34271 105.83333 L 117.34271 114.3 L 161.34622 114.3 L 161.34622 110.06667 L 124.67663 110.06667 L 124.67663 105.83333 L 117.34271 105.83333 z M 176.01406 105.83333 L 176.01406 114.3 L 220.01758 114.3 L 220.01758 110.06667 L 183.34798 110.06667 L 183.34798 105.83333 L 176.01406 105.83333 z M 36.669596 122.76667 L 36.669596 131.23333 L 58.671354 131.23333 L 80.673112 131.23333 L 80.673112 127 L 58.671354 127 L 44.003516 127 L 44.003516 122.76667 L 36.669596 122.76667 z M 95.340951 122.76667 L 95.340951 131.23333 L 117.34271 131.23333 L 139.34447 131.23333 L 139.34447 127 L 117.34271 127 L 102.67487 127 L 102.67487 122.76667 L 95.340951 122.76667 z M 154.0123 122.76667 L 154.0123 131.23333 L 176.01406 131.23333 L 198.01582 131.23333 L 198.01582 127 L 176.01406 127 L 161.34622 127 L 161.34622 122.76667 L 154.0123 122.76667 z M 212.68366 122.76667 L 212.68366 131.23333 L 234.68542 131.23333 L 234.68542 127 L 220.01758 127 L 220.01758 122.76667 L 212.68366 122.76667 z M 0 127 L 0 131.23333 L 22.001758 131.23333 L 22.001758 127 L 0 127 z M 0 139.7 L 0 148.16667 L 44.003516 148.16667 L 44.003516 143.93333 L 7.3339193 143.93333 L 7.3339193 139.7 L 0 139.7 z M 58.671354 139.7 L 58.671354 148.16667 L 102.67487 148.16667 L 102.67487 143.93333 L 66.005273 143.93333 L 66.005273 139.7 L 58.671354 139.7 z M 117.34271 139.7 L 117.34271 148.16667 L 161.34622 148.16667 L 161.34622 143.93333 L 124.67663 143.93333 L 124.67663 139.7 L 117.34271 139.7 z M 176.01406 139.7 L 176.01406 148.16667 L 220.01758 148.16667 L 220.01758 143.93333 L 183.34798 143.93333 L 183.34798 139.7 L 176.01406 139.7 z M 36.669596 156.63333 L 36.669596 165.1 L 58.671354 165.1 L 80.673112 165.1 L 80.673112 160.86667 L 58.671354 160.86667 L 44.003516 160.86667 L 44.003516 156.63333 L 36.669596 156.63333 z M 95.340951 156.63333 L 95.340951 165.1 L 117.34271 165.1 L 139.34447 165.1 L 139.34447 160.86667 L 117.34271 160.86667 L 102.67487 160.86667 L 102.67487 156.63333 L 95.340951 156.63333 z M 154.0123 156.63333 L 154.0123 165.1 L 176.01406 165.1 L 198.01582 165.1 L 198.01582 160.86667 L 176.01406 160.86667 L 161.34622 160.86667 L 161.34622 156.63333 L 154.0123 156.63333 z M 212.68366 156.63333 L 212.68366 165.1 L 234.68542 165.1 L 234.68542 160.86667 L 220.01758 160.86667 L 220.01758 156.63333 L 212.68366 156.63333 z M 0 160.86667 L 0 165.1 L 22.001758 165.1 L 22.001758 160.86667 L 0 160.86667 z M 0 173.56667 L 0 180.62205 L 0 182.03333 L 44.003516 182.03333 L 44.003516 177.8 L 7.3339193 177.8 L 7.3339193 173.56667 L 0 173.56667 z M 58.671354 173.56667 L 58.671354 182.03333 L 102.67487 182.03333 L 102.67487 177.8 L 66.005273 177.8 L 66.005273 173.56667 L 58.671354 173.56667 z M 117.34271 173.56667 L 117.34271 182.03333 L 161.34622 182.03333 L 161.34622 177.8 L 124.67663 177.8 L 124.67663 173.56667 L 117.34271 173.56667 z M 176.01406 173.56667 L 176.01406 182.03333 L 220.01758 182.03333 L 220.01758 177.8 L 183.34798 177.8 L 183.34798 173.56667 L 176.01406 173.56667 z M 36.669596 190.5 L 36.669596 198.96667 L 58.671354 198.96667 L 80.673112 198.96667 L 80.673112 194.73333 L 58.671354 194.73333 L 44.003516 194.73333 L 44.003516 190.5 L 36.669596 190.5 z M 95.340951 190.5 L 95.340951 198.96667 L 117.34271 198.96667 L 139.34447 198.96667 L 139.34447 194.73333 L 117.34271 194.73333 L 102.67487 194.73333 L 102.67487 190.5 L 95.340951 190.5 z M 154.0123 190.5 L 154.0123 198.96667 L 176.01406 198.96667 L 198.01582 198.96667 L 198.01582 194.73333 L 176.01406 194.73333 L 161.34622 194.73333 L 161.34622 190.5 L 154.0123 190.5 z M 212.68366 190.5 L 212.68366 198.96667 L 234.68542 198.96667 L 234.68542 194.73333 L 220.01758 194.73333 L 220.01758 190.5 L 212.68366 190.5 z M 0 194.73333 L 0 198.96667 L 22.001758 198.96667 L 22.001758 194.73333 L 0 194.73333 z M 58.671354 207.43333 L 58.671354 215.9 L 102.67487 215.9 L 102.67487 211.66667 L 66.005273 211.66667 L 66.005273 207.43333 L 58.671354 207.43333 z M 117.34271 207.43333 L 117.34271 215.9 L 161.34622 215.9 L 161.34622 211.66667 L 124.67663 211.66667 L 124.67663 207.43333 L 117.34271 207.43333 z M 176.01406 207.43333 L 176.01406 215.9 L 212.68366 215.9 L 220.01758 211.66667 L 183.34798 211.66667 L 183.34798 207.43333 L 176.01406 207.43333 z M 14.667839 211.66667 L 22.001758 215.9 L 44.003516 215.9 L 44.003516 211.66667 L 14.667839 211.66667 z M 36.669596 224.36667 L 44.003516 228.6 L 44.003516 224.36667 L 36.669596 224.36667 z M 44.003516 228.6 L 51.337435 232.83333 L 58.671354 232.83333 L 80.673112 232.83333 L 80.673112 228.6 L 58.671354 228.6 L 44.003516 228.6 z M 95.340951 224.36667 L 95.340951 232.83333 L 117.34271 232.83333 L 139.34447 232.83333 L 139.34447 228.6 L 117.34271 228.6 L 102.67487 228.6 L 102.67487 224.36667 L 95.340951 224.36667 z M 154.0123 224.36667 L 154.0123 232.83333 L 176.01406 232.83333 L 183.34798 232.83333 L 190.6819 228.6 L 176.01406 228.6 L 161.34622 228.6 L 161.34622 224.36667 L 154.0123 224.36667 z M 117.34271 241.3 L 117.34271 249.76667 L 154.0123 249.76667 L 161.34622 245.53333 L 124.67663 245.53333 L 124.67663 241.3 L 117.34271 241.3 z M 73.339193 245.53333 L 80.673112 249.76667 L 102.67487 249.76667 L 102.67487 245.53333 L 73.339193 245.53333 z M 95.340951 258.23333 L 102.67487 262.46667 L 102.67487 258.23333 L 95.340951 258.23333 z M 102.67487 262.46667 L 110.00879 266.7 L 117.34271 266.7 L 124.67663 266.7 L 132.01055 262.46667 L 117.34271 262.46667 L 102.67487 262.46667 z " />
  <path
     id="path147"
     style="fill:#4d4d4d;stroke-width:0.264583"
     d="M 117.34271 8.4666667 L 117.34271 12.7 L 124.67663 12.7 L 124.67663 8.4666667 L 117.34271 8.4666667 z M 95.340951 25.4 L 95.340951 29.633333 L 102.67487 29.633333 L 102.67487 25.4 L 95.340951 25.4 z M 154.0123 25.4 L 154.0123 29.633333 L 161.34622 29.633333 L 161.34622 25.4 L 154.0123 25.4 z M 58.671354 42.333333 L 58.671354 46.566667 L 66.005273 46.566667 L 66.005273 42.333333 L 58.671354 42.333333 z M 117.34271 42.333333 L 117.34271 46.566667 L 124.67663 46.566667 L 124.67663 42.333333 L 117.34271 42.333333 z M 176.01406 42.333333 L 176.01406 46.566667 L 183.34798 46.566667 L 183.34798 42.333333 L 176.01406 42.333333 z M 36.669596 59.266667 L 36.669596 63.5 L 44.003516 63.5 L 44.003516 59.266667 L 36.669596 59.266667 z M 95.340951 59.266667 L 95.340951 63.5 L 102.67487 63.5 L 102.67487 59.266667 L 95.340951 59.266667 z M 154.0123 59.266667 L 154.0123 63.5 L 161.34622 63.5 L 161.34622 59.266667 L 154.0123 59.266667 z M 212.68366 59.266667 L 212.68366 63.5 L 220.01758 63.5 L 220.01758 59.266667 L 212.68366 59.266667 z M 0 76.2 L 0 80.433333 L 7.3339193 80.433333 L 7.3339193 76.2 L 0 76.2 z M 58.671354 76.2 L 58.671354 80.433333 L 66.005273 80.433333 L 66.005273 76.2 L 58.671354 76.2 z M 117.34271 76.2 L 117.34271 80.433333 L 124.67663 80.433333 L 124.67663 76.2 L 117.34271 76.2 z M 176.01406 76.2 L 176.01406 80.433333 L 183.34798 80.433333 L 183.34798 76.2 L 176.01406 76.2 z M 36.669596 93.133333 L 36.669596 97.366667 L 44.003516 97.366667 L 44.003516 93.133333 L 36.669596 93.133333 z M 95.340951 93.133333 L 95.340951 97.366667 L 102.67487 97.366667 L 102.67487 93.133333 L 95.340951 93.133333 z M 154.0123 93.133333 L 154.0123 97.366667 L 161.34622 97.366667 L 161.34622 93.133333 L 154.0123 93.133333 z M 212.68366 93.133333 L 212.68366 97.366667 L 220.01758 97.366667 L 220.01758 93.133333 L 212.68366 93.133333 z M 0 110.06667 L 0 114.3 L 7.3339193 114.3 L 7.3339193 110.06667 L 0 110.06667 z M 58.671354 110.06667 L 58.671354 114.3 L 66.005273 114.3 L 66.005273 110.06667 L 58.671354 110.06667 z M 117.34271 110.06667 L 117.34271 114.3 L 124.67663 114.3 L 124.67663 110.06667 L 117.34271 110.06667 z M 176.01406 110.06667 L 176.01406 114.3 L 183.34798 114.3 L 183.34798 110.06667 L 176.01406 110.06667 z M 36.669596 127 L 36.669596 131.23333 L 44.003516 131.23333 L 44.003516 127 L 36.669596 127 z M 95.340951 127 L 95.340951 131.23333 L 102.67487 131.23333 L 102.67487 127 L 95.340951 127 z M 154.0123 127 L 154.0123 131.23333 L 161.34622 131.23333 L 161.34622 127 L 154.0123 127 z M 212.68366 127 L 212.68366 131.23333 L 220.01758 131.23333 L 220.01758 127 L 212.68366 127 z M 0 143.93333 L 0 148.16667 L 7.3339193 148.16667 L 7.3339193 143.93333 L 0 143.93333 z M 58.671354 143.93333 L 58.671354 148.16667 L 66.005273 148.16667 L 66.005273 143.93333 L 58.671354 143.93333 z M 117.34271 143.93333 L 117.34271 148.16667 L 124.67663 148.16667 L 124.67663 143.93333 L 117.34271 143.93333 z M 176.01406 143.93333 L 176.01406 148.16667 L 183.34798 148.16667 L 183.34798 143.93333 L 176.01406 143.93333 z M 36.669596 160.86667 L 36.669596 165.1 L 44.003516 165.1 L 44.003516 160.86667 L 36.669596 160.86667 z M 95.340951 160.86667 L 95.340951 165.1 L 102.67487 165.1 L 102.67487 160.86667 L 95.340951 160.86667 z M 154.0123 160.86667 L 154.0123 165.1 L 161.34622 165.1 L 161.34622 160.86667 L 154.0123 160.86667 z M 212.68366 160.86667 L 212.68366 165.1 L 220.01758 165.1 L 220.01758 160.86667 L 212.68366 160.86667 z M 0 177.8 L 0 180.62205 L 0 182.03333 L 7.3339193 182.03333 L 7.3339193 177.8 L 0 177.8 z M 58.671354 177.8 L 58.671354 182.03333 L 66.005273 182.03333 L 66.005273 177.8 L 58.671354 177.8 z M 117.34271 177.8 L 117.34271 182.03333 L 124.67663 182.03333 L 124.67663 177.8 L 117.34271 177.8 z M 176.01406 177.8 L 176.01406 182.03333 L 183.34798 182.03333 L 183.34798 177.8 L 176.01406 177.8 z M 36.669596 194.73333 L 36.669596 198.96667 L 44.003516 198.96667 L 44.003516 194.73333 L 36.669596 194.73333 z M 95.340951 194.73333 L 95.340951 198.96667 L 102.67487 198.96667 L 102.67487 194.73333 L 95.340951 194.73333 z M 154.0123 194.73333 L 154.0123 198.96667 L 161.34622 198.96667 L 161.34622 194.73333 L 154.0123 194.73333 z M 212.68366 194.73333 L 212.68366 198.96667 L 220.01758 198.96667 L 220.01758 194.73333 L 212.68366 194.73333 z M 58.671354 211.66667 L 58.671354 215.9 L 66.005273 215.9 L 66.005273 211.66667 L 58.671354 211.66667 z M 117.34271 211.66667 L 117.34271 215.9 L 124.67663 215.9 L 124.67663 211.66667 L 117.34271 211.66667 z M 176.01406 211.66667 L 176.01406 215.9 L 183.34798 215.9 L 183.34798 211.66667 L 176.01406 211.66667 z M 95.340951 228.6 L 95.340951 232.83333 L 102.67487 232.83333 L 102.67487 228.6 L 95.340951 228.6 z M 154.0123 228.6 L 154.0123 232.83333 L 161.34622 232.83333 L 161.34622 228.6 L 154.0123 228.6 z M 117.34271 245.53333 L 117.34271 249.76667 L 124.67663 249.76667 L 124.67663 245.53333 L 117.34271 245.53333 z " />
  <path
     id="path151"
     style="fill:#999999;stroke-width:0.264583"
     d="M 110.00879 4.2333333 L 102.67487 8.4666667 L 110.00879 8.4666667 L 110.00879 4.2333333 z M 88.007031 16.933333 L 80.673112 21.166667 L 80.673112 25.4 L 88.007031 25.4 L 88.007031 16.933333 z M 102.67487 16.933333 L 102.67487 21.166667 L 117.34271 21.166667 L 139.34447 21.166667 L 139.34447 25.4 L 146.67839 25.4 L 146.67839 16.933333 L 117.34271 16.933333 L 102.67487 16.933333 z M 66.005273 33.866667 L 66.005273 38.1 L 102.67487 38.1 L 102.67487 42.333333 L 110.00879 42.333333 L 110.00879 33.866667 L 66.005273 33.866667 z M 124.67663 33.866667 L 124.67663 38.1 L 161.34622 38.1 L 161.34622 42.333333 L 168.68014 42.333333 L 168.68014 33.866667 L 124.67663 33.866667 z M 51.337435 38.1 L 44.003516 42.333333 L 51.337435 42.333333 L 51.337435 38.1 z M 29.335677 50.8 L 22.001758 55.033333 L 22.001758 59.266667 L 29.335677 59.266667 L 29.335677 50.8 z M 44.003516 50.8 L 44.003516 55.033333 L 58.671354 55.033333 L 80.673112 55.033333 L 80.673112 59.266667 L 88.007031 59.266667 L 88.007031 50.8 L 58.671354 50.8 L 44.003516 50.8 z M 102.67487 50.8 L 102.67487 55.033333 L 117.34271 55.033333 L 139.34447 55.033333 L 139.34447 59.266667 L 146.67839 59.266667 L 146.67839 50.8 L 117.34271 50.8 L 102.67487 50.8 z M 161.34622 50.8 L 161.34622 55.033333 L 176.01406 55.033333 L 198.01582 55.033333 L 198.01582 59.266667 L 205.34974 59.266667 L 205.34974 50.8 L 176.01406 50.8 L 161.34622 50.8 z M 7.3339193 67.733333 L 7.3339193 71.966667 L 44.003516 71.966667 L 44.003516 76.2 L 51.337435 76.2 L 51.337435 67.733333 L 7.3339193 67.733333 z M 66.005273 67.733333 L 66.005273 71.966667 L 102.67487 71.966667 L 102.67487 76.2 L 110.00879 76.2 L 110.00879 67.733333 L 66.005273 67.733333 z M 124.67663 67.733333 L 124.67663 71.966667 L 161.34622 71.966667 L 161.34622 76.2 L 168.68014 76.2 L 168.68014 67.733333 L 124.67663 67.733333 z M 183.34798 67.733333 L 183.34798 71.966667 L 220.01758 71.966667 L 220.01758 76.2 L 227.3515 76.2 L 227.3515 67.733333 L 183.34798 67.733333 z M 0 84.666667 L 0 88.9 L 22.001758 88.9 L 22.001758 93.133333 L 29.335677 93.133333 L 29.335677 84.666667 L 0 84.666667 z M 44.003516 84.666667 L 44.003516 88.9 L 58.671354 88.9 L 80.673112 88.9 L 80.673112 93.133333 L 88.007031 93.133333 L 88.007031 84.666667 L 58.671354 84.666667 L 44.003516 84.666667 z M 102.67487 84.666667 L 102.67487 88.9 L 117.34271 88.9 L 139.34447 88.9 L 139.34447 93.133333 L 146.67839 93.133333 L 146.67839 84.666667 L 117.34271 84.666667 L 102.67487 84.666667 z M 161.34622 84.666667 L 161.34622 88.9 L 176.01406 88.9 L 198.01582 88.9 L 198.01582 93.133333 L 205.34974 93.133333 L 205.34974 84.666667 L 176.01406 84.666667 L 161.34622 84.666667 z M 220.01758 84.666667 L 220.01758 88.9 L 234.68542 88.9 L 234.68542 84.666667 L 220.01758 84.666667 z M 7.3339193 101.6 L 7.3339193 105.83333 L 44.003516 105.83333 L 44.003516 110.06667 L 51.337435 110.06667 L 51.337435 101.6 L 7.3339193 101.6 z M 66.005273 101.6 L 66.005273 105.83333 L 102.67487 105.83333 L 102.67487 110.06667 L 110.00879 110.06667 L 110.00879 101.6 L 66.005273 101.6 z M 124.67663 101.6 L 124.67663 105.83333 L 161.34622 105.83333 L 161.34622 110.06667 L 168.68014 110.06667 L 168.68014 101.6 L 124.67663 101.6 z M 183.34798 101.6 L 183.34798 105.83333 L 220.01758 105.83333 L 220.01758 110.06667 L 227.3515 110.06667 L 227.3515 101.6 L 183.34798 101.6 z M 0 118.53333 L 0 122.76667 L 22.001758 122.76667 L 22.001758 127 L 29.335677 127 L 29.335677 118.53333 L 0 118.53333 z M 44.003516 118.53333 L 44.003516 122.76667 L 58.671354 122.76667 L 80.673112 122.76667 L 80.673112 127 L 88.007031 127 L 88.007031 118.53333 L 58.671354 118.53333 L 44.003516 118.53333 z M 102.67487 118.53333 L 102.67487 122.76667 L 117.34271 122.76667 L 139.34447 122.76667 L 139.34447 127 L 146.67839 127 L 146.67839 118.53333 L 117.34271 118.53333 L 102.67487 118.53333 z M 161.34622 118.53333 L 161.34622 122.76667 L 176.01406 122.76667 L 198.01582 122.76667 L 198.01582 127 L 205.34974 127 L 205.34974 118.53333 L 176.01406 118.53333 L 161.34622 118.53333 z M 220.01758 118.53333 L 220.01758 122.76667 L 234.68542 122.76667 L 234.68542 118.53333 L 220.01758 118.53333 z M 7.3339193 135.46667 L 7.3339193 139.7 L 44.003516 139.7 L 44.003516 143.93333 L 51.337435 143.93333 L 51.337435 135.46667 L 7.3339193 135.46667 z M 66.005273 135.46667 L 66.005273 139.7 L 102.67487 139.7 L 102.67487 143.93333 L 110.00879 143.93333 L 110.00879 135.46667 L 66.005273 135.46667 z M 124.67663 135.46667 L 124.67663 139.7 L 161.34622 139.7 L 161.34622 143.93333 L 168.68014 143.93333 L 168.68014 135.46667 L 124.67663 135.46667 z M 183.34798 135.46667 L 183.34798 139.7 L 220.01758 139.7 L 220.01758 143.93333 L 227.3515 143.93333 L 227.3515 135.46667 L 183.34798 135.46667 z M 0 152.4 L 0 156.63333 L 22.001758 156.63333 L 22.001758 160.86667 L 29.335677 160.86667 L 29.335677 152.4 L 0 152.4 z M 44.003516 152.4 L 44.003516 156.63333 L 58.671354 156.63333 L 80.673112 156.63333 L 80.673112 160.86667 L 88.007031 160.86667 L 88.007031 152.4 L 58.671354 152.4 L 44.003516 152.4 z M 102.67487 152.4 L 102.67487 156.63333 L 117.34271 156.63333 L 139.34447 156.63333 L 139.34447 160.86667 L 146.67839 160.86667 L 146.67839 152.4 L 117.34271 152.4 L 102.67487 152.4 z M 161.34622 152.4 L 161.34622 156.63333 L 176.01406 156.63333 L 198.01582 156.63333 L 198.01582 160.86667 L 205.34974 160.86667 L 205.34974 152.4 L 176.01406 152.4 L 161.34622 152.4 z M 220.01758 152.4 L 220.01758 156.63333 L 234.68542 156.63333 L 234.68542 152.4 L 220.01758 152.4 z M 7.3339193 169.33333 L 7.3339193 173.56667 L 44.003516 173.56667 L 44.003516 177.8 L 51.337435 177.8 L 51.337435 169.33333 L 7.3339193 169.33333 z M 66.005273 169.33333 L 66.005273 173.56667 L 102.67487 173.56667 L 102.67487 177.8 L 110.00879 177.8 L 110.00879 169.33333 L 66.005273 169.33333 z M 124.67663 169.33333 L 124.67663 173.56667 L 161.34622 173.56667 L 161.34622 177.8 L 168.68014 177.8 L 168.68014 169.33333 L 124.67663 169.33333 z M 183.34798 169.33333 L 183.34798 173.56667 L 220.01758 173.56667 L 220.01758 177.8 L 227.3515 177.8 L 227.3515 169.33333 L 183.34798 169.33333 z M 0 186.26667 L 0 190.5 L 22.001758 190.5 L 22.001758 194.73333 L 29.335677 194.73333 L 29.335677 186.26667 L 0 186.26667 z M 44.003516 186.26667 L 44.003516 190.5 L 58.671354 190.5 L 80.673112 190.5 L 80.673112 194.73333 L 88.007031 194.73333 L 88.007031 186.26667 L 58.671354 186.26667 L 44.003516 186.26667 z M 102.67487 186.26667 L 102.67487 190.5 L 117.34271 190.5 L 139.34447 190.5 L 139.34447 194.73333 L 146.67839 194.73333 L 146.67839 186.26667 L 117.34271 186.26667 L 102.67487 186.26667 z M 161.34622 186.26667 L 161.34622 190.5 L 176.01406 190.5 L 198.01582 190.5 L 198.01582 194.73333 L 205.34974 194.73333 L 205.34974 186.26667 L 176.01406 186.26667 L 161.34622 186.26667 z M 220.01758 186.26667 L 220.01758 190.5 L 234.68542 190.5 L 234.68542 186.26667 L 220.01758 186.26667 z M 7.3339193 203.2 L 7.3339193 207.43333 L 44.003516 207.43333 L 44.003516 211.66667 L 51.337435 211.66667 L 51.337435 203.2 L 7.3339193 203.2 z M 66.005273 203.2 L 66.005273 207.43333 L 102.67487 207.43333 L 102.67487 211.66667 L 110.00879 211.66667 L 110.00879 203.2 L 66.005273 203.2 z M 124.67663 203.2 L 124.67663 207.43333 L 161.34622 207.43333 L 161.34622 211.66667 L 168.68014 211.66667 L 168.68014 203.2 L 124.67663 203.2 z M 183.34798 203.2 L 183.34798 207.43333 L 220.01758 207.43333 L 220.01758 211.66667 L 227.3515 207.43333 L 227.3515 203.2 L 183.34798 203.2 z M 44.003516 220.13333 L 44.003516 224.36667 L 58.671354 224.36667 L 80.673112 224.36667 L 80.673112 228.6 L 88.007031 228.6 L 88.007031 220.13333 L 58.671354 220.13333 L 44.003516 220.13333 z M 102.67487 220.13333 L 102.67487 224.36667 L 117.34271 224.36667 L 139.34447 224.36667 L 139.34447 228.6 L 146.67839 228.6 L 146.67839 220.13333 L 117.34271 220.13333 L 102.67487 220.13333 z M 161.34622 220.13333 L 161.34622 224.36667 L 176.01406 224.36667 L 198.01582 224.36667 L 205.34974 220.13333 L 176.01406 220.13333 L 161.34622 220.13333 z M 66.005273 237.06667 L 66.005273 241.3 L 102.67487 241.3 L 102.67487 245.53333 L 110.00879 245.53333 L 110.00879 237.06667 L 66.005273 237.06667 z M 124.67663 237.06667 L 124.67663 241.3 L 161.34622 241.3 L 161.34622 245.53333 L 168.68014 241.3 L 168.68014 237.06667 L 124.67663 237.06667 z M 102.67487 254 L 102.67487 258.23333 L 117.34271 258.23333 L 139.34447 258.23333 L 146.67839 254 L 117.34271 254 L 102.67487 254 z " />
  <path
     id="path154"
     style="fill:#b3b3b3;stroke-width:0.264583"
     d="M 88.007031 16.933333 L 80.673112 21.166667 L 88.007031 21.166667 L 88.007031 16.933333 z M 139.34447 16.933333 L 139.34447 21.166667 L 146.67839 21.166667 L 146.67839 16.933333 L 139.34447 16.933333 z M 102.67487 33.866667 L 102.67487 38.1 L 110.00879 38.1 L 110.00879 33.866667 L 102.67487 33.866667 z M 161.34622 33.866667 L 161.34622 38.1 L 168.68014 38.1 L 168.68014 33.866667 L 161.34622 33.866667 z M 29.335677 50.8 L 22.001758 55.033333 L 29.335677 55.033333 L 29.335677 50.8 z M 80.673112 50.8 L 80.673112 55.033333 L 88.007031 55.033333 L 88.007031 50.8 L 80.673112 50.8 z M 139.34447 50.8 L 139.34447 55.033333 L 146.67839 55.033333 L 146.67839 50.8 L 139.34447 50.8 z M 198.01582 50.8 L 198.01582 55.033333 L 205.34974 55.033333 L 205.34974 50.8 L 198.01582 50.8 z M 44.003516 67.733333 L 44.003516 71.966667 L 51.337435 71.966667 L 51.337435 67.733333 L 44.003516 67.733333 z M 102.67487 67.733333 L 102.67487 71.966667 L 110.00879 71.966667 L 110.00879 67.733333 L 102.67487 67.733333 z M 161.34622 67.733333 L 161.34622 71.966667 L 168.68014 71.966667 L 168.68014 67.733333 L 161.34622 67.733333 z M 220.01758 67.733333 L 220.01758 71.966667 L 227.3515 71.966667 L 227.3515 67.733333 L 220.01758 67.733333 z M 22.001758 84.666667 L 22.001758 88.9 L 29.335677 88.9 L 29.335677 84.666667 L 22.001758 84.666667 z M 80.673112 84.666667 L 80.673112 88.9 L 88.007031 88.9 L 88.007031 84.666667 L 80.673112 84.666667 z M 139.34447 84.666667 L 139.34447 88.9 L 146.67839 88.9 L 146.67839 84.666667 L 139.34447 84.666667 z M 198.01582 84.666667 L 198.01582 88.9 L 205.34974 88.9 L 205.34974 84.666667 L 198.01582 84.666667 z M 44.003516 101.6 L 44.003516 105.83333 L 51.337435 105.83333 L 51.337435 101.6 L 44.003516 101.6 z M 102.67487 101.6 L 102.67487 105.83333 L 110.00879 105.83333 L 110.00879 101.6 L 102.67487 101.6 z M 161.34622 101.6 L 161.34622 105.83333 L 168.68014 105.83333 L 168.68014 101.6 L 161.34622 101.6 z M 220.01758 101.6 L 220.01758 105.83333 L 227.3515 105.83333 L 227.3515 101.6 L 220.01758 101.6 z M 22.001758 118.53333 L 22.001758 122.76667 L 29.335677 122.76667 L 29.335677 118.53333 L 22.001758 118.53333 z M 80.673112 118.53333 L 80.673112 122.76667 L 88.007031 122.76667 L 88.007031 118.53333 L 80.673112 118.53333 z M 139.34447 118.53333 L 139.34447 122.76667 L 146.67839 122.76667 L 146.67839 118.53333 L 139.34447 118.53333 z M 198.01582 118.53333 L 198.01582 122.76667 L 205.34974 122.76667 L 205.34974 118.53333 L 198.01582 118.53333 z M 44.003516 135.46667 L 44.003516 139.7 L 51.337435 139.7 L 51.337435 135.46667 L 44.003516 135.46667 z M 102.67487 135.46667 L 102.67487 139.7 L 110.00879 139.7 L 110.00879 135.46667 L 102.67487 135.46667 z M 161.34622 135.46667 L 161.34622 139.7 L 168.68014 139.7 L 168.68014 135.46667 L 161.34622 135.46667 z M 220.01758 135.46667 L 220.01758 139.7 L 227.3515 139.7 L 227.3515 135.46667 L 220.01758 135.46667 z M 22.001758 152.4 L 22.001758 156.63333 L 29.335677 156.63333 L 29.335677 152.4 L 22.001758 152.4 z M 80.673112 152.4 L 80.673112 156.63333 L 88.007031 156.63333 L 88.007031 152.4 L 80.673112 152.4 z M 139.34447 152.4 L 139.34447 156.63333 L 146.67839 156.63333 L 146.67839 152.4 L 139.34447 152.4 z M 198.01582 152.4 L 198.01582 156.63333 L 205.34974 156.63333 L 205.34974 152.4 L 198.01582 152.4 z M 44.003516 169.33333 L 44.003516 173.56667 L 51.337435 173.56667 L 51.337435 169.33333 L 44.003516 169.33333 z M 102.67487 169.33333 L 102.67487 173.56667 L 110.00879 173.56667 L 110.00879 169.33333 L 102.67487 169.33333 z M 161.34622 169.33333 L 161.34622 173.56667 L 168.68014 173.56667 L 168.68014 169.33333 L 161.34622 169.33333 z M 220.01758 169.33333 L 220.01758 173.56667 L 227.3515 173.56667 L 227.3515 169.33333 L 220.01758 169.33333 z M 22.001758 186.26667 L 22.001758 190.5 L 29.335677 190.5 L 29.335677 186.26667 L 22.001758 186.26667 z M 80.673112 186.26667 L 80.673112 190.5 L 88.007031 190.5 L 88.007031 186.26667 L 80.673112 186.26667 z M 139.34447 186.26667 L 139.34447 190.5 L 146.67839 190.5 L 146.67839 186.26667 L 139.34447 186.26667 z M 198.01582 186.26667 L 198.01582 190.5 L 205.34974 190.5 L 205.34974 186.26667 L 198.01582 186.26667 z M 44.003516 203.2 L 44.003516 207.43333 L 51.337435 207.43333 L 51.337435 203.2 L 44.003516 203.2 z M 102.67487 203.2 L 102.67487 207.43333 L 110.00879 207.43333 L 110.00879 203.2 L 102.67487 203.2 z M 161.34622 203.2 L 161.34622 207.43333 L 168.68014 207.43333 L 168.68014 203.2 L 161.34622 203.2 z M 220.01758 203.2 L 220.01758 207.43333 L 227.3515 207.43333 L 227.3515 203.2 L 220.01758 203.2 z M 80.673112 220.13333 L 80.673112 224.36667 L 88.007031 224.36667 L 88.007031 220.13333 L 80.673112 220.13333 z M 139.34447 220.13333 L 139.34447 224.36667 L 146.67839 224.36667 L 146.67839 220.13333 L 139.34447 220.13333 z M 198.01582 220.13333 L 198.01582 224.36667 L 205.34974 220.13333 L 198.01582 220.13333 z M 102.67487 237.06667 L 102.67487 241.3 L 110.00879 241.3 L 110.00879 237.06667 L 102.67487 237.06667 z M 161.34622 237.06667 L 161.34622 241.3 L 168.68014 241.3 L 168.68014 237.06667 L 161.34622 237.06667 z M 139.34447 254 L 139.34447 258.23333 L 146.67839 254 L 139.34447 254 z " />
  <g
     id="g760" />
</svg>
